# xmcd
#
# Track frame offsets: 
#        150
#        13408
#        29820
#
# Disc length: 588 seconds
#
# Revision: 0
# Processed by: cddbd v1.5.1PL0 Copyright (c) Steve Scherf et al.
# Submitted via: ExactAudioCopy v0.95a5
#
DISCID=25024a03
DTITLE=Jon Spencer Blues Explosion - Burn It Off
DYEAR=2004
DGENRE=Blues Punk
TTITLE0=Burn It Off
TTITLE1=Fed Up And Low Down (Edit)
TTITLE2=Cold, Cold Eyes (Demo Version)
EXTD=
EXTT0=
EXTT1=
EXTT2=
PLAYORDER=
